PathFileType	4	(X/Y/Z)	s09c0203.trc
DataRate	CameraRate	NumFrames	NumMarkers	Units	OrigDataRate	OrigDataStartFrame	OrigNumFrames
200	200	7	50	mm	200	750	2000
Frame#	Time	racr			lacr			c7			jug			rlel			rdr			llel			ldr			s2			lic			ric			lasi			rasi			rpsi			lpsi			rgt			lgt			rth1			rth2			rth3			rth4			rlfc			rmfc			rsh1			rsh2			rsh3			rsh4			rlmal			rmmal			rcal			rtoe			rmt5			lth1			lth2			lth4			lth3			llfc			lmfc			llmal			lmmal			lcal			lmt5			lsh1			lsh2			lsh3			lsh4			ltoe			SBIKE			LBIKE			RBIKE			
		X1	Y1	Z1	X2	Y2	Z2	X3	Y3	Z3	X4	Y4	Z4	X5	Y5	Z5	X6	Y6	Z6	X7	Y7	Z7	X8	Y8	Z8	X9	Y9	Z9	X10	Y10	Z10	X11	Y11	Z11	X12	Y12	Z12	X13	Y13	Z13	X14	Y14	Z14	X15	Y15	Z15	X16	Y16	Z16	X17	Y17	Z17	X18	Y18	Z18	X19	Y19	Z19	X20	Y20	Z20	X21	Y21	Z21	X22	Y22	Z22	X23	Y23	Z23	X24	Y24	Z24	X25	Y25	Z25	X26	Y26	Z26	X27	Y27	Z27	X28	Y28	Z28	X29	Y29	Z29	X30	Y30	Z30	X31	Y31	Z31	X32	Y32	Z32	X33	Y33	Z33	X34	Y34	Z34	X35	Y35	Z35	X36	Y36	Z36	X37	Y37	Z37	X38	Y38	Z38	X39	Y39	Z39	X40	Y40	Z40	X41	Y41	Z41	X42	Y42	Z42	X43	Y43	Z43	X44	Y44	Z44	X45	Y45	Z45	X46	Y46	Z46	X47	Y47	Z47	X48	Y48	Z48	X49	Y49	Z49	X50	Y50	Z50	
750	3.7500	479.540945	1236.113017	-42.105234	564.706873	1191.388435	-365.467112	491.357558	1290.544182	-204.578161	467.333789	1156.187197	-209.295457	468.803397	999.569889	56.579065	670.105435	907.154018	-54.746055	445.654117	990.073089	-534.661799	660.720532	906.492349	-452.732576	13.590405	1121.807901	-290.017005	157.162930	1100.837403	-425.080484	138.763703	1147.666644	-132.454133	194.281887	1048.116068	-393.754714	187.289530	1098.104186	-144.199653	33.123727	1160.515801	-233.618224	46.542422	1152.878659	-341.944090	137.647877	1041.759047	-78.806357	112.964862	959.962600	-446.149447	264.410370	986.310269	-92.621815	349.982201	976.050075	-106.127026	419.349518	920.567557	-107.065349	359.622025	998.207338	-134.729645	497.492017	841.979035	-135.798124	476.523815	814.198285	-232.436068	433.365885	764.765476	-97.999707	404.557414	679.787422	-102.706415	338.227168	622.510197	-92.843114	423.951734	666.366159	-134.884705	285.302440	534.943421	-84.219494	279.116450	542.703720	-162.458443	200.553151	497.614536	-111.385686	463.904168	497.821391	-132.207043	386.438250	478.489925	-60.350836	199.128043	847.477693	-434.325340	263.763485	794.392187	-420.291169	293.890617	814.992574	-411.382911	294.456432	710.173226	-405.769798	330.259292	615.731470	-384.107896	335.263563	604.134328	-288.877863	146.408625	296.793369	-407.024910	166.412816	293.216642	-333.978224	72.689731	286.017315	-365.821435	205.910714	171.931042	-429.210500	280.346577	528.645776	-410.458250	257.496989	445.404483	-402.066483	195.609778	381.886239	-407.919372	276.935506	436.245740	-369.408419	294.181079	149.785290	-363.678391	-65.147550	850.668517	-241.871456	21.182022	83.679111	-442.339731	21.155860	84.086530	-43.977143	
751	3.7550	478.880005	1235.308759	-41.234093	564.537742	1189.473848	-364.480565	490.648230	1289.750141	-204.144552	466.641292	1155.198939	-208.335451	467.992179	998.978662	57.801250	669.000499	907.199582	-54.046212	444.759416	988.823627	-533.795961	660.504089	906.428407	-452.696590	13.281422	1120.497256	-289.953938	156.887282	1099.957698	-424.476256	138.344936	1146.755904	-131.545672	194.254610	1047.567800	-393.037908	187.195908	1097.675090	-143.363992	32.704116	1159.303546	-233.343390	46.082340	1151.669795	-341.628507	137.206051	1039.688788	-77.886440	114.320371	959.189718	-445.513845	264.265460	982.754791	-90.958921	349.903175	971.558615	-103.887004	418.654452	915.303446	-105.435322	359.929905	994.047713	-132.099947	496.538411	836.589474	-134.098706	476.083671	809.085933	-230.346441	433.894598	758.032287	-96.115826	406.404693	672.708633	-101.621502	341.037367	614.275685	-92.084305	425.984123	659.484879	-133.694764	289.866227	526.169637	-83.999908	283.614922	534.300452	-162.303925	206.177692	486.485361	-111.396273	469.401877	495.344114	-131.829700	392.790635	473.156618	-60.216220	202.584967	848.514531	-433.176470	267.806636	796.413464	-418.376349	297.497180	817.572612	-408.973758	299.623952	712.634667	-403.811718	334.745156	617.817005	-382.910406	337.967046	606.554865	-287.425349	142.695281	302.910727	-406.660886	162.680446	298.782641	-333.494614	68.854331	293.929608	-365.214876	199.043016	176.637343	-428.833780	282.505086	531.355977	-409.510184	257.444339	448.637246	-401.325294	193.991902	386.799063	-407.346845	276.657384	438.887304	-368.158591	287.057740	151.877018	-363.424776	-65.075224	850.681419	-241.808348	21.184346	83.683479	-442.357440	21.150766	84.064284	-43.986317	
752	3.7600	478.303289	1234.971615	-40.594788	564.362453	1187.722645	-363.839888	489.594502	1289.394389	-205.955242	465.989349	1154.309899	-208.178229	467.006310	998.673784	58.694809	668.004900	907.301712	-53.247257	443.701373	987.501854	-532.818445	660.358537	906.472542	-452.904511	13.004216	1119.213835	-289.731529	156.664811	1099.030089	-423.789285	137.950211	1145.789339	-130.337655	194.241388	1047.034839	-392.247646	187.120660	1097.128608	-142.613730	32.263808	1158.005787	-232.881552	45.770233	1150.417358	-341.257226	136.944385	1037.381537	-76.884477	115.801681	958.141784	-444.151269	264.244849	979.016636	-89.137247	349.803094	966.835462	-101.569785	417.758023	909.226371	-103.293311	360.465607	990.910173	-128.603591	495.462462	830.871352	-132.402937	475.649001	803.841261	-228.122930	434.381071	751.086965	-94.299815	408.250960	665.328359	-100.603619	343.931731	605.777952	-91.315982	427.754444	653.196919	-133.033701	294.715409	517.149600	-83.690769	288.070506	525.541056	-162.117974	211.883636	475.370064	-111.238610	474.644465	492.149189	-131.464739	398.872894	467.597852	-60.040336	205.910323	849.474963	-432.049811	271.616242	798.289371	-416.639290	300.923717	819.802253	-406.878286	304.437222	714.942011	-401.924888	338.511574	619.828222	-381.887270	341.017916	608.265699	-286.388574	138.749826	309.183933	-406.312509	158.775290	304.498324	-333.184849	64.735740	301.715443	-364.921425	192.284733	181.810717	-428.845399	284.196163	534.124258	-408.652455	257.142767	451.986715	-400.608150	192.157852	391.837026	-406.806672	276.017871	441.711352	-367.467214	279.939122	155.236995	-363.474205	-65.003577	850.701889	-241.745838	21.187994	83.684771	-442.359853	21.141313	84.044327	-43.992500	
753	3.7650	477.678781	1235.039862	-40.115978	564.136039	1186.178324	-363.580113	489.644405	1288.469866	-203.459593	465.757262	1153.427433	-207.606280	465.890608	998.645574	59.375364	667.062430	907.470324	-52.362784	442.480855	986.159397	-531.758545	660.283597	906.564620	-453.257720	12.591923	1117.946766	-289.353476	156.426651	1098.113821	-423.054160	137.745804	1144.553848	-129.079430	194.307146	1046.320947	-391.255976	187.518775	1096.444079	-141.435265	31.862326	1156.642309	-232.280708	46.701314	1148.508873	-339.057690	136.789691	1034.753403	-75.864703	117.255669	957.362833	-443.553306	264.290374	975.270454	-87.329041	349.756134	962.000243	-99.228103	416.751496	903.302973	-101.419283	360.992281	986.334462	-125.767044	494.471826	825.091245	-130.748726	475.487436	798.391373	-225.827460	434.768461	744.023618	-92.503107	410.205106	657.949197	-99.421947	346.928306	597.170983	-90.487065	429.666006	646.291379	-132.146653	299.349144	508.473881	-82.991463	292.521830	516.788374	-161.720737	217.698629	464.426559	-110.985364	479.862465	488.231035	-131.201645	404.738794	461.541264	-59.806420	208.964681	850.445635	-430.955383	275.205505	799.852738	-415.209483	304.193172	821.919989	-405.164268	308.809219	716.983105	-400.308575	341.530150	621.671215	-381.159561	343.428963	609.863513	-285.291720	134.594119	315.567473	-406.077625	154.429247	310.664050	-332.874795	60.421332	309.380955	-364.756676	185.797052	187.362079	-428.785312	285.497556	537.067795	-407.943015	256.642992	455.675154	-400.320883	190.035687	396.996774	-406.350019	275.051894	444.730912	-366.887802	273.098524	159.273896	-363.459055	-64.936500	850.710620	-241.665235	21.180456	83.693862	-442.374433	21.112294	84.033558	-44.010499	
754	3.7700	477.221756	1235.406058	-39.805676	563.895923	1184.814335	-363.727957	489.676086	1287.746223	-202.092195	465.687088	1152.893127	-207.080579	465.235025	998.186695	59.473648	666.558291	907.738615	-51.579764	441.226034	984.754932	-530.696744	660.443692	906.994889	-453.745015	12.208945	1116.726003	-288.798823	156.163497	1097.159992	-422.197618	137.535197	1143.333998	-127.602607	194.262870	1045.758964	-390.293935	187.621632	1095.401512	-140.576000	31.467491	1155.263876	-231.443299	46.175757	1147.156241	-338.517555	136.772604	1031.873813	-74.894245	118.693428	956.574673	-442.952458	264.398645	971.233062	-85.525517	349.698270	957.017439	-96.861279	415.811083	897.315585	-99.661897	361.582686	981.424581	-123.036878	493.429886	819.382204	-129.085108	475.721084	792.430031	-222.916017	435.196109	737.043359	-90.803393	412.033040	650.473175	-98.344011	349.934648	588.619666	-89.663476	431.715839	639.684276	-131.085621	304.144930	499.486975	-82.542283	296.949826	508.198028	-161.212479	223.327680	453.912574	-110.817265	485.054225	483.772809	-131.599209	410.557281	455.028116	-59.685674	211.623160	851.338821	-430.006769	278.281355	801.316843	-413.893318	306.941187	823.681077	-403.484899	312.553499	718.775547	-399.006498	343.939755	623.514593	-380.528731	345.369528	611.345081	-284.288982	130.282465	322.175357	-405.798367	150.364965	316.777444	-332.707215	55.991162	317.077665	-364.548128	179.545245	193.268559	-428.699040	286.447645	540.072400	-407.350762	255.752853	459.337320	-399.993175	187.722434	402.238657	-405.927778	273.599449	447.295957	-365.774867	266.422401	163.983284	-363.488979	-64.895853	850.727058	-241.577611	21.155184	83.708307	-442.379970	21.104662	83.993853	-44.017929	
755	3.7750	476.928659	1235.888102	-39.546944	563.586859	1183.581547	-364.255617	489.917024	1287.682937	-202.906886	466.085969	1152.621661	-205.912423	464.027975	998.488724	59.854766	665.946657	907.936556	-50.602174	439.777785	983.368771	-529.611926	660.462242	907.171841	-454.056973	11.967271	1115.515585	-288.047027	155.929043	1096.232699	-421.215578	137.449882	1142.057988	-125.971379	194.151202	1045.228902	-389.147667	187.877449	1094.236794	-139.329294	31.084862	1153.906928	-230.341789	45.489933	1145.997607	-337.754297	136.925564	1028.898661	-73.809998	120.025487	956.139175	-443.116171	264.497370	967.352619	-83.736512	349.690497	952.012288	-94.524124	414.952150	891.339558	-97.900508	362.143964	976.662115	-120.194386	492.338314	813.656392	-127.230925	475.542543	786.876178	-220.762082	435.480586	730.185554	-89.069715	413.154900	643.124615	-98.180877	352.982677	580.222157	-88.761110	433.399111	633.090737	-130.229639	308.843695	490.646275	-82.081181	301.443812	499.384454	-160.568685	228.849693	443.811327	-110.614959	489.883699	478.575360	-131.797338	416.176258	448.298551	-59.598541	213.755316	852.056783	-429.213405	280.701558	802.530874	-412.714518	309.039213	825.037734	-401.810882	315.718290	720.309664	-398.374210	346.029387	625.120891	-380.065259	346.787875	612.799435	-283.362489	125.946131	328.957382	-405.582174	146.025096	323.330831	-332.464859	51.545345	324.777930	-364.360071	173.532344	199.450766	-428.652166	287.115408	543.111898	-406.898833	254.673633	463.202637	-399.719993	185.182227	407.758307	-405.599405	272.336244	450.619554	-365.634718	260.150448	169.281289	-363.429292	-64.844711	850.738085	-241.481090	21.147881	83.709273	-442.390991	21.095686	83.987018	-44.043860	
756	3.7800	477.022989	1236.137311	-39.466942	563.261197	1182.545014	-364.955767	489.495443	1287.456258	-201.902261	466.493892	1152.181823	-205.656521	462.902275	998.874919	60.182230	665.330789	908.236988	-49.566081	438.287403	981.997794	-528.559080	660.468126	907.259886	-454.122177	11.779579	1114.327139	-286.767488	155.679256	1095.382977	-420.156421	137.423380	1140.810875	-124.354683	194.010583	1045.103161	-388.149257	188.113419	1093.131438	-138.014509	30.711885	1152.567181	-228.980931	44.621658	1144.947006	-336.885278	137.177770	1025.668294	-72.816548	121.151049	955.178581	-442.202663	264.400517	962.771488	-82.292541	349.746789	947.151971	-92.293436	414.096628	885.551140	-96.039416	362.474068	972.103601	-117.258457	491.171334	808.391286	-124.975622	475.239441	781.437676	-218.636508	435.805247	723.392135	-87.312375	414.947274	636.179521	-97.005115	356.163610	572.042424	-87.857497	435.343314	626.628169	-128.903363	313.559658	481.565197	-81.497704	305.895670	491.068465	-160.296237	234.580590	433.640749	-110.146667	495.073960	472.662146	-131.615393	421.553500	441.052958	-59.738028	215.546060	852.779777	-428.750992	282.595720	803.593718	-411.669446	310.645083	826.232456	-400.298664	318.054935	721.474727	-397.598863	347.742578	626.772034	-379.581494	347.056173	614.574073	-282.526923	121.644923	336.060341	-405.347972	141.961689	330.049964	-332.352086	47.057187	332.649218	-364.249361	167.740766	206.067160	-428.592876	287.589165	546.266424	-406.509529	253.466732	467.150322	-399.499297	182.689455	413.192144	-405.217166	271.149719	454.549040	-366.038210	254.127258	175.186945	-363.369238	-64.809890	850.777524	-241.423749	21.153581	83.728206	-442.382397	21.096976	83.980674	-44.029204	
